Coordinates
version=1
nRows=22
nColumns=18
inDegrees=yes

Units are S.I. units (second, meters, Newtons, ...)
Angles are in degrees.

endheader
time	pelvis_tilt	pelvis_list	pelvis_rotation	pelvis_tx	pelvis_ty	pelvis_tz	hip_flexion_r	hip_adduction_r	hip_rotation_r	knee_angle_r	ankle_angle_r	hip_flexion_l	hip_adduction_l	hip_rotation_l	knee_angle_l	ankle_angle_l	lumbar_extension
      1.80000000	     -0.02253110	      1.01633163	      0.86896497	     -0.20842571	      0.83136464	     -0.29291588	     20.30965644	      3.43059810	      0.00000000	    -33.59307231	     20.15718380	     -7.70538157	      2.51252006	      0.00000000	    -43.65815329	     -7.37433820	     -5.00000214
      1.81000000	      0.01262588	      0.91580413	      1.36988543	     -0.19749538	      0.83214740	     -0.29245057	     19.03946174	      3.57773024	      0.00000000	    -32.96082789	     20.59702732	     -5.64789535	      2.13856177	      0.00000000	    -46.49835561	     -6.28368959	     -5.00000214
      1.82000000	     -0.02419045	      0.88198533	      1.75246746	     -0.18707755	      0.83289258	     -0.29232559	     17.94467951	      3.62083525	      0.00000000	    -32.45159575	     21.37558227	     -3.50162644	      1.96256227	      0.00000000	    -49.08384812	     -3.16282936	     -5.00000214
      1.83000000	     -0.06862850	      0.81392766	      2.16995616	     -0.17686949	      0.83394164	     -0.29217121	     16.76007802	      3.71809738	      0.00000000	    -31.70637961	     21.69302363	     -1.31902077	      1.73893463	      0.00000000	    -51.40436463	     -1.09128515	     -5.00000214
      1.84000000	     -0.12412318	      0.73453388	      2.58214896	     -0.16680059	      0.83522001	     -0.29207814	     15.52879314	      3.83567380	      0.00000000	    -30.82031275	     21.87958462	      0.85920412	      1.53061427	      0.00000000	    -53.40325796	      0.98530868	     -5.00000214
      1.85000000	     -0.18379039	      0.64668389	      2.98300248	     -0.15684355	      0.83666567	     -0.29199104	     14.27550468	      3.97050390	      0.00000000	    -29.85056543	     21.94304170	      3.01745300	      1.33437130	      0.00000000	    -55.08237088	      2.91669684	     -5.00000214
      1.86000000	     -0.27196141	      0.55384411	      3.38184129	     -0.14709646	      0.83823681	     -0.29191999	     13.04892492	      4.11589174	      0.00000000	    -28.81942259	     21.93693972	      5.20013423	      1.15220982	      0.00000000	    -56.46213079	      3.67661331	     -5.00000214
      1.87000000	     -0.38126397	      0.50307685	      3.70259416	     -0.13752379	      0.83979567	     -0.29193165	     11.93218290	      4.21172117	      0.00000000	    -27.94051773	     21.75171895	      7.34114829	      1.09022748	      0.00000000	    -57.49381682	      6.22213368	     -5.00000214
      1.88000000	     -0.50805529	      0.45459320	      4.02709270	     -0.12805940	      0.84141114	     -0.29195175	     10.83504160	      4.30690049	      0.00000000	    -27.02534714	     21.55211379	      9.45641517	      1.04961448	      0.00000000	    -58.20135075	      7.72165960	     -5.00000214
      1.89000000	     -0.66360714	      0.43040450	      4.30238900	     -0.11875156	      0.84298607	     -0.29199654	      9.82966748	      4.37299407	      0.00000000	    -26.19064838	     21.28178417	     11.54023749	      1.08054557	      0.00000000	    -58.58718651	      9.01549251	     -5.00000214
      1.90000000	     -0.84449733	      0.42891398	      4.51723051	     -0.10959880	      0.84449304	     -0.29204852	      8.92137250	      4.40951585	      0.00000000	    -25.44920818	     20.98327470	     13.57751392	      1.17840353	      0.00000000	    -58.64908444	     10.11381063	     -5.00000214
      1.91000000	     -1.05639071	      0.46373570	      4.66056170	     -0.10059272	      0.84593595	     -0.29211360	      8.12760925	      4.39828875	      0.00000000	    -24.82367628	     20.63728981	     15.54282677	      1.35387391	      0.00000000	    -58.34164535	     11.15395647	     -5.00000214
      1.92000000	     -1.29516990	      0.49437966	      4.72219530	     -0.09172589	      0.84724797	     -0.29206120	      7.43076902	      4.40033971	      0.00000000	    -24.27610577	     20.29594867	     17.45615640	      1.53728368	      0.00000000	    -57.74542032	     12.03927757	     -5.00000214
      1.93000000	     -1.57493292	      0.57710503	      4.66005700	     -0.08307789	      0.84846027	     -0.29199695	      6.87462826	      4.32639668	      0.00000000	    -23.86065868	     20.23512501	     19.29434048	      1.80321600	      0.00000000	    -56.79195992	     12.21245705	     -5.00000214
      1.94000000	     -1.83465591	      0.61777797	      4.57896740	     -0.07423338	      0.84964861	     -0.29178956	      6.22898520	      4.31267157	      0.00000000	    -23.32284244	     19.59142531	     20.94640959	      1.97391100	      0.00000000	    -55.46073233	     13.50748439	     -5.00000214
      1.95000000	     -2.16121831	      0.70688371	      4.36239440	     -0.06570864	      0.85061421	     -0.29158848	      5.78471715	      4.22207670	      0.00000000	    -22.98283442	     19.44217647	     22.56942012	      2.21007472	      0.00000000	    -53.84658578	     13.84321222	     -5.00000214
      1.96000000	     -2.53881358	      0.70389707	      4.08111108	     -0.05742884	      0.85129540	     -0.29093142	      5.43678771	      4.26724675	      0.00000000	    -22.64641143	     19.38332066	     24.19934386	      2.25295670	      0.00000000	    -52.04693406	     13.99591242	     -5.00000214
      1.97000000	     -2.77398494	      0.82954476	      3.70525944	     -0.04837161	      0.85234015	     -0.29072016	      4.67056907	      4.11203804	      0.00000000	    -21.92013439	     18.54144834	     25.24783955	      2.45060624	      0.00000000	    -49.55935921	     15.39841192	     -5.00000214
      1.98000000	     -3.12594789	      0.91081851	      3.24804545	     -0.03990780	      0.85289006	     -0.29028629	      4.23903988	      4.00062155	      0.00000000	    -21.51303569	     18.37810670	     26.42325260	      2.54861098	      0.00000000	    -46.97419072	     15.64390025	     -5.00000214
      1.99000000	     -3.46660620	      0.95874792	      2.75701935	     -0.03137954	      0.85327188	     -0.28968558	      3.76681600	      3.92997059	      0.00000000	    -21.05334278	     18.19034031	     27.41939057	      2.52985114	      0.00000000	    -44.09648438	     15.83963075	     -5.00000214
      2.00000000	     -3.73599686	      1.01905816	      2.24941099	     -0.02246734	      0.85363115	     -0.28919219	      3.04005735	      3.83000023	      0.00000000	    -20.27069847	     17.75905223	     28.11635356	      2.49840999	      0.00000000	    -40.89720688	     16.06087464	     -5.00000214
      2.01000000	     -4.06720844	      1.03624134	      1.66899689	     -0.01388819	      0.85355092	     -0.28855682	      2.58391782	      3.76597683	      0.00000000	    -19.84213804	     17.53379046	     28.78744378	      2.36283717	      0.00000000	    -37.53626951	     16.04667780	     -5.00000214
